solid cap
facet normal -1.2068096253008148e-15 -1.0 4.535950205020817e-30
  outer loop
    vertex 67.88433310594276 52.29489084126774 1.500000000000063
    vertex 84.38433310638314 52.294890841267716 -3.9134896469948633e-31
    vertex 84.38433310638314 52.294890841267716 1.5000000000000198
  endloop
endfacet
facet normal -1.2068096253008148e-15 -1.0 4.535950205020817e-30
  outer loop
    vertex 84.38433310638314 52.294890841267716 -3.9134896469948633e-31
    vertex 67.88433310594276 52.29489084126774 1.500000000000063
    vertex 67.88433310594274 52.29489084126774 4.3287595730085954e-14
  endloop
endfacet
facet normal 1.0 -1.2822352268821107e-15 -1.2562341738878516e-15
  outer loop
    vertex 84.38433310638317 70.98858650578467 2.2559731860383094e-14
    vertex 84.38433310638314 52.294890841267716 1.5000000000000198
    vertex 84.38433310638314 52.294890841267716 -3.9134896469948633e-31
  endloop
endfacet
facet normal 1.0 -1.2822352268821107e-15 -1.2562341738878516e-15
  outer loop
    vertex 84.38433310638314 52.294890841267716 1.5000000000000198
    vertex 84.38433310638317 70.98858650578467 2.2559731860383094e-14
    vertex 84.38433310638317 70.98858650578467 1.5000000000000424
  endloop
endfacet
facet normal 1.2068096253008114e-15 1.0 -4.535950205020818e-30
  outer loop
    vertex 84.38433310638317 70.98858650578467 2.2559731860383094e-14
    vertex 67.88433310594279 70.9885865057847 1.5000000000000406
    vertex 84.38433310638317 70.98858650578467 1.5000000000000424
  endloop
endfacet
facet normal 1.2068096253008114e-15 1.0 -4.535950205020818e-30
  outer loop
    vertex 67.88433310594279 70.9885865057847 1.5000000000000406
    vertex 84.38433310638317 70.98858650578467 2.2559731860383094e-14
    vertex 67.88433310594277 70.9885865057847 2.0727863869702693e-14
  endloop
endfacet
facet normal -1.2562341738878516e-15 -2.8859319291063235e-30 -1.0
  outer loop
    vertex 67.88433310594277 70.9885865057847 2.0727863869702693e-14
    vertex 84.38433310638314 52.294890841267716 -3.9134896469948633e-31
    vertex 67.88433310594274 52.29489084126774 4.3287595730085954e-14
  endloop
endfacet
facet normal -1.2562341738878516e-15 -2.8859319291063235e-30 -1.0
  outer loop
    vertex 84.38433310638314 52.294890841267716 -3.9134896469948633e-31
    vertex 67.88433310594277 70.9885865057847 2.0727863869702693e-14
    vertex 84.38433310638317 70.98858650578467 2.2559731860383094e-14
  endloop
endfacet
facet normal -1.0 1.206809625300813e-15 1.2562341738878516e-15
  outer loop
    vertex 67.88433310594276 52.29489084126774 1.500000000000063
    vertex 67.88433310594277 70.9885865057847 2.0727863869702693e-14
    vertex 67.88433310594274 52.29489084126774 4.3287595730085954e-14
  endloop
endfacet
facet normal -1.0 1.206809625300813e-15 1.2562341738878516e-15
  outer loop
    vertex 67.88433310594277 70.9885865057847 2.0727863869702693e-14
    vertex 67.88433310594276 52.29489084126774 1.500000000000063
    vertex 67.88433310594279 70.9885865057847 1.5000000000000406
  endloop
endfacet
facet normal 1.2562341738878516e-15 3.0831471554115765e-30 1.0
  outer loop
    vertex 84.38433310638314 52.294890841267716 1.5000000000000198
    vertex 83.38433310638314 53.294890841267716 1.5000000000000184
    vertex 67.88433310594276 52.29489084126774 1.500000000000063
  endloop
endfacet
facet normal 1.2562341738878516e-15 3.0831471554115765e-30 1.0
  outer loop
    vertex 83.38433310638314 53.294890841267716 1.5000000000000184
    vertex 84.38433310638314 52.294890841267716 1.5000000000000198
    vertex 84.38433310638317 70.98858650578467 1.5000000000000424
  endloop
endfacet
facet normal 1.2562341738878516e-15 3.0831471554115765e-30 1.0
  outer loop
    vertex 83.38433310638314 53.294890841267716 1.5000000000000184
    vertex 84.38433310638317 70.98858650578467 1.5000000000000424
    vertex 83.38433310638317 70.17489084089337 1.5000000000000433
  endloop
endfacet
facet normal 1.2562341738878516e-15 3.0831471554115765e-30 1.0
  outer loop
    vertex 83.38433310638317 70.17489084089337 1.5000000000000433
    vertex 84.38433310638317 70.98858650578467 1.5000000000000424
    vertex 68.88433310594277 70.17489084089338 1.5000000000000417
  endloop
endfacet
facet normal 1.2562341738878516e-15 3.0831471554115765e-30 1.0
  outer loop
    vertex 67.88433310594276 52.29489084126774 1.500000000000063
    vertex 68.88433310594276 53.29489084126774 1.500000000000062
    vertex 67.88433310594279 70.9885865057847 1.5000000000000406
  endloop
endfacet
facet normal 1.2562341738878516e-15 3.0831471554115765e-30 1.0
  outer loop
    vertex 68.88433310594276 53.29489084126774 1.500000000000062
    vertex 67.88433310594276 52.29489084126774 1.500000000000063
    vertex 83.38433310638314 53.294890841267716 1.5000000000000184
  endloop
endfacet
facet normal 1.2562341738878516e-15 3.0831471554115765e-30 1.0
  outer loop
    vertex 67.88433310594279 70.9885865057847 1.5000000000000406
    vertex 68.88433310594276 53.29489084126774 1.500000000000062
    vertex 68.88433310594277 70.17489084089338 1.5000000000000417
  endloop
endfacet
facet normal 1.2562341738878516e-15 3.0831471554115765e-30 1.0
  outer loop
    vertex 67.88433310594279 70.9885865057847 1.5000000000000406
    vertex 68.88433310594277 70.17489084089338 1.5000000000000417
    vertex 84.38433310638317 70.98858650578467 1.5000000000000424
  endloop
endfacet
facet normal 1.0 -1.2485745317375749e-15 -1.5809575870662107e-15
  outer loop
    vertex 83.38433310638317 70.17489084089337 1.5000000000000433
    vertex 83.38433310638314 53.29489084126772 4.000000000000036
    vertex 83.38433310638314 53.294890841267716 1.5000000000000184
  endloop
endfacet
facet normal 1.0 -1.2485745317375749e-15 -1.5809575870662107e-15
  outer loop
    vertex 83.38433310638314 53.29489084126772 4.000000000000036
    vertex 83.38433310638317 70.17489084089337 1.5000000000000433
    vertex 83.38433310638317 70.17489084089337 4.000000000000061
  endloop
endfacet
facet normal -1.2068096253008116e-15 -1.0 1.20680962530082e-15
  outer loop
    vertex 68.88433310594276 53.29489084126774 4.00000000000008
    vertex 83.38433310638314 53.294890841267716 1.5000000000000184
    vertex 83.38433310638314 53.29489084126772 4.000000000000036
  endloop
endfacet
facet normal -1.2068096253008116e-15 -1.0 1.20680962530082e-15
  outer loop
    vertex 83.38433310638314 53.294890841267716 1.5000000000000184
    vertex 68.88433310594276 53.29489084126774 4.00000000000008
    vertex 68.88433310594276 53.29489084126774 1.500000000000062
  endloop
endfacet
facet normal -1.0 1.2068096253008128e-15 1.0169642905566351e-15
  outer loop
    vertex 68.88433310594276 53.29489084126774 4.00000000000008
    vertex 68.88433310594277 70.17489084089338 1.5000000000000417
    vertex 68.88433310594276 53.29489084126774 1.500000000000062
  endloop
endfacet
facet normal -1.0 1.2068096253008128e-15 1.0169642905566351e-15
  outer loop
    vertex 68.88433310594277 70.17489084089338 1.5000000000000417
    vertex 68.88433310594276 53.29489084126774 4.00000000000008
    vertex 68.88433310594277 70.17489084089338 4.0000000000000595
  endloop
endfacet
facet normal 1.2068096253008116e-15 1.0 -1.20680962530082e-15
  outer loop
    vertex 83.38433310638317 70.17489084089337 1.5000000000000433
    vertex 68.88433310594277 70.17489084089338 4.0000000000000595
    vertex 83.38433310638317 70.17489084089337 4.000000000000061
  endloop
endfacet
facet normal 1.2068096253008116e-15 1.0 -1.20680962530082e-15
  outer loop
    vertex 68.88433310594277 70.17489084089338 4.0000000000000595
    vertex 83.38433310638317 70.17489084089337 1.5000000000000433
    vertex 68.88433310594277 70.17489084089338 1.5000000000000417
  endloop
endfacet
facet normal 1.4448212740683811e-15 -1.2966738067569365e-16 1.0
  outer loop
    vertex 83.38433310638317 70.17489084089337 4.000000000000061
    vertex 68.88433310594276 53.29489084126774 4.00000000000008
    vertex 83.38433310638314 53.29489084126772 4.000000000000036
  endloop
endfacet
facet normal 1.4448212740683811e-15 -1.2966738067569365e-16 1.0
  outer loop
    vertex 68.88433310594276 53.29489084126774 4.00000000000008
    vertex 83.38433310638317 70.17489084089337 4.000000000000061
    vertex 68.88433310594277 70.17489084089338 4.0000000000000595
  endloop
endfacet
endsolid cap
