solid sensor_case
facet normal 0.0 3.885780586188047e-16 -1.0
  outer loop
    vertex 71.24385692717831 47.978999367344684 0.0
    vertex 31.243856927178303 26.978999367344677 0.0
    vertex 31.243856927178303 47.978999367344684 0.0
  endloop
endfacet
facet normal 0.0 3.885780586188047e-16 -1.0
  outer loop
    vertex 31.243856927178303 26.978999367344677 0.0
    vertex 71.24385692717831 47.978999367344684 0.0
    vertex 63.43496153882214 41.98638001529604 0.0
  endloop
endfacet
facet normal 0.0 3.885780586188047e-16 -1.0
  outer loop
    vertex 63.43496153882214 41.98638001529604 0.0
    vertex 71.24385692717831 47.978999367344684 0.0
    vertex 67.21502053882216 41.98638001529604 0.0
  endloop
endfacet
facet normal 0.0 3.885780586188047e-16 -1.0
  outer loop
    vertex 67.21502053882216 41.98638001529604 0.0
    vertex 71.24385692717831 47.978999367344684 0.0
    vertex 67.21502053882216 33.06285001529604 0.0
  endloop
endfacet
facet normal 0.0 3.885780586188047e-16 -1.0
  outer loop
    vertex 31.243856927178303 26.978999367344677 0.0
    vertex 63.43496153882214 33.063503778797426 0.0
    vertex 71.24385692717831 26.978999367344677 0.0
  endloop
endfacet
facet normal 0.0 3.885780586188047e-16 -1.0
  outer loop
    vertex 63.43496153882214 33.063503778797426 0.0
    vertex 31.243856927178303 26.978999367344677 0.0
    vertex 63.43496153882214 41.98638001529604 0.0
  endloop
endfacet
facet normal 0.0 3.885780586188047e-16 -1.0
  outer loop
    vertex 71.24385692717831 26.978999367344677 0.0
    vertex 63.43496153882214 33.063503778797426 0.0
    vertex 67.21502053882216 33.06285001529604 0.0
  endloop
endfacet
facet normal 0.0 3.885780586188047e-16 -1.0
  outer loop
    vertex 71.24385692717831 26.978999367344677 0.0
    vertex 67.21502053882216 33.06285001529604 0.0
    vertex 71.24385692717831 47.978999367344684 0.0
  endloop
endfacet
facet normal 1.0 0.0 0.0
  outer loop
    vertex 71.24385692717831 47.978999367344684 0.0
    vertex 71.24385692717831 26.978999367344677 8.500000000000007
    vertex 71.24385692717831 26.978999367344677 0.0
  endloop
endfacet
facet normal 1.0 0.0 0.0
  outer loop
    vertex 71.24385692717831 26.978999367344677 8.500000000000007
    vertex 71.24385692717831 47.978999367344684 0.0
    vertex 71.24385692717831 47.978999367344684 8.500000000000007
  endloop
endfacet
facet normal 0.0 -3.885780586188047e-16 1.0
  outer loop
    vertex 69.24385692717833 28.978999367344674 1.9999999999999962
    vertex 33.2438569271783 45.978999367344684 1.9999999999999962
    vertex 33.2438569271783 28.978999367344674 1.9999999999999962
  endloop
endfacet
facet normal 0.0 -3.885780586188047e-16 1.0
  outer loop
    vertex 33.2438569271783 45.978999367344684 1.9999999999999962
    vertex 69.24385692717833 28.978999367344674 1.9999999999999962
    vertex 63.43496153882214 33.063503778797426 1.9999999999999962
  endloop
endfacet
facet normal 0.0 -3.885780586188047e-16 1.0
  outer loop
    vertex 63.43496153882214 33.063503778797426 1.9999999999999962
    vertex 69.24385692717833 28.978999367344674 1.9999999999999962
    vertex 67.21502053882216 33.06285001529604 1.9999999999999962
  endloop
endfacet
facet normal 0.0 -3.885780586188047e-16 1.0
  outer loop
    vertex 67.21502053882216 33.06285001529604 1.9999999999999962
    vertex 69.24385692717833 28.978999367344674 1.9999999999999962
    vertex 67.21502053882216 41.98638001529604 1.9999999999999962
  endloop
endfacet
facet normal 0.0 -3.885780586188047e-16 1.0
  outer loop
    vertex 33.2438569271783 45.978999367344684 1.9999999999999962
    vertex 63.43496153882214 41.98638001529604 1.9999999999999962
    vertex 69.24385692717833 45.978999367344684 1.9999999999999962
  endloop
endfacet
facet normal 0.0 -3.885780586188047e-16 1.0
  outer loop
    vertex 63.43496153882214 41.98638001529604 1.9999999999999962
    vertex 33.2438569271783 45.978999367344684 1.9999999999999962
    vertex 63.43496153882214 33.063503778797426 1.9999999999999962
  endloop
endfacet
facet normal 0.0 -3.885780586188047e-16 1.0
  outer loop
    vertex 69.24385692717833 45.978999367344684 1.9999999999999962
    vertex 63.43496153882214 41.98638001529604 1.9999999999999962
    vertex 67.21502053882216 41.98638001529604 1.9999999999999962
  endloop
endfacet
facet normal 0.0 -3.885780586188047e-16 1.0
  outer loop
    vertex 69.24385692717833 45.978999367344684 1.9999999999999962
    vertex 67.21502053882216 41.98638001529604 1.9999999999999962
    vertex 69.24385692717833 28.978999367344674 1.9999999999999962
  endloop
endfacet
facet normal -1.0 0.0 0.0
  outer loop
    vertex 31.243856927178303 47.978999367344684 8.500000000000007
    vertex 31.243856927178303 26.978999367344677 0.0
    vertex 31.243856927178303 26.978999367344677 8.500000000000007
  endloop
endfacet
facet normal -1.0 0.0 0.0
  outer loop
    vertex 31.243856927178303 26.978999367344677 0.0
    vertex 31.243856927178303 47.978999367344684 8.500000000000007
    vertex 31.243856927178303 47.978999367344684 0.0
  endloop
endfacet
facet normal 0.0 1.0 0.0
  outer loop
    vertex 31.243856927178303 47.978999367344684 8.500000000000007
    vertex 71.24385692717831 47.978999367344684 0.0
    vertex 31.243856927178303 47.978999367344684 0.0
  endloop
endfacet
facet normal 0.0 1.0 0.0
  outer loop
    vertex 71.24385692717831 47.978999367344684 0.0
    vertex 31.243856927178303 47.978999367344684 8.500000000000007
    vertex 71.24385692717831 47.978999367344684 8.500000000000007
  endloop
endfacet
facet normal 0.0 -1.0 0.0
  outer loop
    vertex 71.24385692717831 26.978999367344677 8.500000000000007
    vertex 31.243856927178303 26.978999367344677 0.0
    vertex 71.24385692717831 26.978999367344677 0.0
  endloop
endfacet
facet normal 0.0 -1.0 0.0
  outer loop
    vertex 31.243856927178303 26.978999367344677 0.0
    vertex 71.24385692717831 26.978999367344677 8.500000000000007
    vertex 31.243856927178303 26.978999367344677 8.500000000000007
  endloop
endfacet
facet normal 0.0 -1.0 0.0
  outer loop
    vertex 69.24385692717833 45.97899936734469 8.500000000000007
    vertex 33.2438569271783 45.978999367344684 1.9999999999999962
    vertex 69.24385692717833 45.978999367344684 1.9999999999999962
  endloop
endfacet
facet normal 0.0 -1.0 0.0
  outer loop
    vertex 33.2438569271783 45.978999367344684 1.9999999999999962
    vertex 69.24385692717833 45.97899936734469 8.500000000000007
    vertex 33.2438569271783 45.97899936734469 8.500000000000007
  endloop
endfacet
facet normal 0.0 0.0 1.0
  outer loop
    vertex 31.243856927178303 26.978999367344677 8.500000000000007
    vertex 33.2438569271783 28.978999367344674 8.500000000000007
    vertex 31.243856927178303 47.978999367344684 8.500000000000007
  endloop
endfacet
facet normal 0.0 0.0 1.0
  outer loop
    vertex 33.2438569271783 28.978999367344674 8.500000000000007
    vertex 31.243856927178303 26.978999367344677 8.500000000000007
    vertex 71.24385692717831 26.978999367344677 8.500000000000007
  endloop
endfacet
facet normal 0.0 0.0 1.0
  outer loop
    vertex 33.2438569271783 28.978999367344674 8.500000000000007
    vertex 71.24385692717831 26.978999367344677 8.500000000000007
    vertex 69.24385692717833 28.978999367344674 8.500000000000007
  endloop
endfacet
facet normal 0.0 0.0 1.0
  outer loop
    vertex 69.24385692717833 28.978999367344674 8.500000000000007
    vertex 71.24385692717831 26.978999367344677 8.500000000000007
    vertex 69.24385692717833 45.97899936734469 8.500000000000007
  endloop
endfacet
facet normal 0.0 0.0 1.0
  outer loop
    vertex 31.243856927178303 47.978999367344684 8.500000000000007
    vertex 33.2438569271783 45.97899936734469 8.500000000000007
    vertex 71.24385692717831 47.978999367344684 8.500000000000007
  endloop
endfacet
facet normal 0.0 0.0 1.0
  outer loop
    vertex 33.2438569271783 45.97899936734469 8.500000000000007
    vertex 31.243856927178303 47.978999367344684 8.500000000000007
    vertex 33.2438569271783 28.978999367344674 8.500000000000007
  endloop
endfacet
facet normal 0.0 0.0 1.0
  outer loop
    vertex 71.24385692717831 47.978999367344684 8.500000000000007
    vertex 33.2438569271783 45.97899936734469 8.500000000000007
    vertex 69.24385692717833 45.97899936734469 8.500000000000007
  endloop
endfacet
facet normal 0.0 0.0 1.0
  outer loop
    vertex 71.24385692717831 47.978999367344684 8.500000000000007
    vertex 69.24385692717833 45.97899936734469 8.500000000000007
    vertex 71.24385692717831 26.978999367344677 8.500000000000007
  endloop
endfacet
facet normal 0.0 1.0 0.0
  outer loop
    vertex 33.2438569271783 28.978999367344674 8.500000000000007
    vertex 69.24385692717833 28.978999367344674 1.9999999999999962
    vertex 33.2438569271783 28.978999367344674 1.9999999999999962
  endloop
endfacet
facet normal 0.0 1.0 0.0
  outer loop
    vertex 69.24385692717833 28.978999367344674 1.9999999999999962
    vertex 33.2438569271783 28.978999367344674 8.500000000000007
    vertex 69.24385692717833 28.978999367344674 8.500000000000007
  endloop
endfacet
facet normal 1.0 0.0 0.0
  outer loop
    vertex 33.2438569271783 28.978999367344674 1.9999999999999962
    vertex 33.2438569271783 45.97899936734469 8.500000000000007
    vertex 33.2438569271783 28.978999367344674 8.500000000000007
  endloop
endfacet
facet normal 1.0 0.0 0.0
  outer loop
    vertex 33.2438569271783 45.97899936734469 8.500000000000007
    vertex 33.2438569271783 28.978999367344674 1.9999999999999962
    vertex 33.2438569271783 45.978999367344684 1.9999999999999962
  endloop
endfacet
facet normal -1.0 0.0 0.0
  outer loop
    vertex 69.24385692717833 45.97899936734469 8.500000000000007
    vertex 69.24385692717833 28.978999367344674 1.9999999999999962
    vertex 69.24385692717833 28.978999367344674 8.500000000000007
  endloop
endfacet
facet normal -1.0 0.0 0.0
  outer loop
    vertex 69.24385692717833 28.978999367344674 1.9999999999999962
    vertex 69.24385692717833 45.97899936734469 8.500000000000007
    vertex 69.24385692717833 45.978999367344684 1.9999999999999962
  endloop
endfacet
facet normal 1.0 0.0 0.0
  outer loop
    vertex 63.43496153882214 41.98638001529604 0.0
    vertex 63.43496153882214 33.063503778797426 1.9999999999999962
    vertex 63.43496153882214 33.063503778797426 0.0
  endloop
endfacet
facet normal 1.0 0.0 0.0
  outer loop
    vertex 63.43496153882214 33.063503778797426 1.9999999999999962
    vertex 63.43496153882214 41.98638001529604 0.0
    vertex 63.43496153882214 41.98638001529604 1.9999999999999962
  endloop
endfacet
facet normal 0.0 -1.0 -3.885780586188047e-16
  outer loop
    vertex 67.21502053882216 41.98638001529604 1.9999999999999962
    vertex 63.43496153882214 41.98638001529604 0.0
    vertex 67.21502053882216 41.98638001529604 0.0
  endloop
endfacet
facet normal 0.0 -1.0 -3.885780586188047e-16
  outer loop
    vertex 63.43496153882214 41.98638001529604 0.0
    vertex 67.21502053882216 41.98638001529604 1.9999999999999962
    vertex 63.43496153882214 41.98638001529604 1.9999999999999962
  endloop
endfacet
facet normal -1.0 0.0 0.0
  outer loop
    vertex 67.21502053882216 41.98638001529604 1.9999999999999962
    vertex 67.21502053882216 33.06285001529604 0.0
    vertex 67.21502053882216 33.06285001529604 1.9999999999999962
  endloop
endfacet
facet normal -1.0 0.0 0.0
  outer loop
    vertex 67.21502053882216 33.06285001529604 0.0
    vertex 67.21502053882216 41.98638001529604 1.9999999999999962
    vertex 67.21502053882216 41.98638001529604 0.0
  endloop
endfacet
facet normal 0.0001247519148929402 0.9999999922184798 1.5357799134375342e-16
  outer loop
    vertex 63.43496153882214 33.063503778797426 1.9999999999999962
    vertex 67.21502053882216 33.06285001529604 0.0
    vertex 63.43496153882214 33.063503778797426 0.0
  endloop
endfacet
facet normal 0.0001247519148929402 0.9999999922184798 1.5357799134375342e-16
  outer loop
    vertex 67.21502053882216 33.06285001529604 0.0
    vertex 63.43496153882214 33.063503778797426 1.9999999999999962
    vertex 67.21502053882216 33.06285001529604 1.9999999999999962
  endloop
endfacet
endsolid sensor_case
